<svg viewBox="0 0 576 512" xmlns="http://www.w3.org/2000/svg" xmlns:xlink="http://www.w3.org/1999/xlink"><style>:root&gt;svg{display:none}:root&gt;svg:target{display:block}</style><svg viewBox="0 0 19 11" id="arrow" xmlns="http://www.w3.org/2000/svg"><path d="M9.5 10.25L0 .75h19l-9.5 9.5z"/></svg><svg aria-hidden="true" data-prefix="fab" data-icon="facebook-f" class="bsvg-inline--fa bfa-facebook-f bfa-w-10" viewBox="0 0 320 512" id="facebook" xmlns="http://www.w3.org/2000/svg"><path d="M279.14 288l14.22-92.66h-88.91v-60.13c0-25.35 12.42-50.06 52.24-50.06h40.42V6.26S260.43 0 225.36 0c-73.22 0-121.08 44.38-121.08 124.72v70.62H22.89V288h81.39v224h100.17V288z"/></svg><svg aria-hidden="true" data-prefix="fab" data-icon="instagram" class="csvg-inline--fa cfa-instagram cfa-w-14" viewBox="0 0 448 512" id="insta" xmlns="http://www.w3.org/2000/svg"><path d="M224.1 141c-63.6 0-114.9 51.3-114.9 114.9s51.3 114.9 114.9 114.9S339 319.5 339 255.9 287.7 141 224.1 141zm0 189.6c-41.1 0-74.7-33.5-74.7-74.7s33.5-74.7 74.7-74.7 74.7 33.5 74.7 74.7-33.6 74.7-74.7 74.7zm146.4-194.3c0 14.9-12 26.8-26.8 26.8-14.9 0-26.8-12-26.8-26.8s12-26.8 26.8-26.8 26.8 12 26.8 26.8zm76.1 27.2c-1.7-35.9-9.9-67.7-36.2-93.9-26.2-26.2-58-34.4-93.9-36.2-37-2.1-147.9-2.1-184.9 0-35.8 1.7-67.6 9.9-93.9 36.1s-34.4 58-36.2 93.9c-2.1 37-2.1 147.9 0 184.9 1.7 35.9 9.9 67.7 36.2 93.9s58 34.4 93.9 36.2c37 2.1 147.9 2.1 184.9 0 35.9-1.7 67.7-9.9 93.9-36.2 26.2-26.2 34.4-58 36.2-93.9 2.1-37 2.1-147.8 0-184.8zM398.8 388c-7.8 19.6-22.9 34.7-42.6 42.6-29.5 11.7-99.5 9-132.1 9s-102.7 2.6-132.1-9c-19.6-7.8-34.7-22.9-42.6-42.6-11.7-29.5-9-99.5-9-132.1s-2.6-102.7 9-132.1c7.8-19.6 22.9-34.7 42.6-42.6 29.5-11.7 99.5-9 132.1-9s102.7-2.6 132.1 9c19.6 7.8 34.7 22.9 42.6 42.6 11.7 29.5 9 99.5 9 132.1s2.7 102.7-9 132.1z"/></svg><svg viewBox="0 0 10 15" id="next" xmlns="http://www.w3.org/2000/svg"><path d="M.566 2.05V.617C.566.492.71.423.806.5L9.17 7.032a.591.591 0 010 .934L.806 14.499a.148.148 0 01-.24-.117v-1.434a.3.3 0 01.114-.234L7.36 7.5.68 2.284a.3.3 0 01-.114-.233z"/></svg><svg aria-hidden="true" data-prefix="fab" data-icon="pinterest-p" class="esvg-inline--fa efa-pinterest-p efa-w-12" viewBox="0 0 384 512" id="pinterest" xmlns="http://www.w3.org/2000/svg"><path d="M204 6.5C101.4 6.5 0 74.9 0 185.6 0 256 39.6 296 63.6 296c9.9 0 15.6-27.6 15.6-35.4 0-9.3-23.7-29.1-23.7-67.8 0-80.4 61.2-137.4 140.4-137.4 68.1 0 118.5 38.7 118.5 109.8 0 53.1-21.3 152.7-90.3 152.7-24.9 0-46.2-18-46.2-43.8 0-37.8 26.4-74.4 26.4-113.4 0-66.2-93.9-54.2-93.9 25.8 0 16.8 2.1 35.4 9.6 50.7-13.8 59.4-42 147.9-42 209.1 0 18.9 2.7 37.5 4.5 56.4 3.4 3.8 1.7 3.4 6.9 1.5 50.4-69 48.6-82.5 71.4-172.8 12.3 23.4 44.1 36 69.3 36 106.2 0 153.9-103.5 153.9-196.8C384 71.3 298.2 6.5 204 6.5z"/></svg><svg viewBox="0 0 10 15" id="prev" xmlns="http://www.w3.org/2000/svg"><path d="M9.434 2.05V.617A.148.148 0 009.194.5L.83 7.032a.591.591 0 000 .934l8.364 6.533c.099.076.24.007.24-.117v-1.434a.3.3 0 00-.114-.234L2.64 7.5l6.68-5.216a.3.3 0 00.114-.233z"/></svg><svg aria-hidden="true" data-prefix="fas" data-icon="search-plus" class="gsvg-inline--fa gfa-search-plus gfa-w-16" viewBox="0 0 512 512" id="search-plus" xmlns="http://www.w3.org/2000/svg"><path d="M304 192v32c0 6.6-5.4 12-12 12h-56v56c0 6.6-5.4 12-12 12h-32c-6.6 0-12-5.4-12-12v-56h-56c-6.6 0-12-5.4-12-12v-32c0-6.6 5.4-12 12-12h56v-56c0-6.6 5.4-12 12-12h32c6.6 0 12 5.4 12 12v56h56c6.6 0 12 5.4 12 12zm201 284.7L476.7 505c-9.4 9.4-24.6 9.4-33.9 0L343 405.3c-4.5-4.5-7-10.6-7-17V372c-35.3 27.6-79.7 44-128 44C93.1 416 0 322.9 0 208S93.1 0 208 0s208 93.1 208 208c0 48.3-16.4 92.7-44 128h16.3c6.4 0 12.5 2.5 17 7l99.7 99.7c9.3 9.4 9.3 24.6 0 34zM344 208c0-75.2-60.8-136-136-136S72 132.8 72 208s60.8 136 136 136 136-60.8 136-136z"/></svg><svg viewBox="0 0 15 15" id="tel" xmlns="http://www.w3.org/2000/svg"><path d="M14.22 11.57L11 8.642a.792.792 0 00-1.101.034l-1.895 1.949c-.456-.088-1.372-.373-2.316-1.315-.944-.944-1.23-1.863-1.314-2.316L6.32 5.1a.792.792 0 00.034-1.102L3.43.781a.792.792 0 00-1.1-.069L.61 2.186a.792.792 0 00-.23.513c-.01.198-.236 4.886 3.4 8.523 3.171 3.171 7.144 3.403 8.238 3.403.16 0 .258-.005.284-.006a.786.786 0 00.513-.23l1.472-1.72a.79.79 0 00-.067-1.1z"/><path d="M14.22 11.57L11 8.642a.792.792 0 00-1.101.034l-1.895 1.949c-.456-.088-1.372-.373-2.316-1.315-.944-.944-1.23-1.863-1.314-2.316L6.32 5.1a.792.792 0 00.034-1.102L3.43.781a.792.792 0 00-1.1-.069L.61 2.186a.792.792 0 00-.23.513c-.01.198-.236 4.886 3.4 8.523 3.171 3.171 7.144 3.403 8.238 3.403.16 0 .258-.005.284-.006a.786.786 0 00.513-.23l1.472-1.72a.79.79 0 00-.067-1.1z"/><defs><linearGradient id="hpaint0_linear" x1="4.963" y1=".522" x2="9.869" y2="2.021" gradientUnits="userSpaceOnUse"><stop stop-color="#E0DEDE"/><stop offset=".984" stop-color="#A2A0A0"/></linearGradient></defs></svg><svg aria-hidden="true" data-prefix="fab" data-icon="vk" class="isvg-inline--fa ifa-vk ifa-w-18" viewBox="0 0 576 512" id="vk" xmlns="http://www.w3.org/2000/svg"><path d="M545 117.7c3.7-12.5 0-21.7-17.8-21.7h-58.9c-15 0-21.9 7.9-25.6 16.7 0 0-30 73.1-72.4 120.5-13.7 13.7-20 18.1-27.5 18.1-3.7 0-9.4-4.4-9.4-16.9V117.7c0-15-4.2-21.7-16.6-21.7h-92.6c-9.4 0-15 7-15 13.5 0 14.2 21.2 17.5 23.4 57.5v86.8c0 19-3.4 22.5-10.9 22.5-20 0-68.6-73.4-97.4-157.4-5.8-16.3-11.5-22.9-26.6-22.9H38.8c-16.8 0-20.2 7.9-20.2 16.7 0 15.6 20 93.1 93.1 195.5C160.4 378.1 229 416 291.4 416c37.5 0 42.1-8.4 42.1-22.9 0-66.8-3.4-73.1 15.4-73.1 8.7 0 23.7 4.4 58.7 38.1 40 40 46.6 57.9 69 57.9h58.9c16.8 0 25.3-8.4 20.4-25-11.2-34.9-86.9-106.7-90.3-111.5-8.7-11.2-6.2-16.2 0-26.2.1-.1 72-101.3 79.4-135.6z"/></svg></svg>